# xmcd
# 
# Track frame offsets:
#     150
#     5431
#     71272
#     78806
#     100798
#     125739
#     141891
#     203496
# 
# Disc length: 3353
# 
# Revision: 0
# Processed by: cddbd v1.5.2PL0 Copyright (c) Steve Scherf et al.
# Submitted via: fre:ac v1.0.17
# 
DISCID=5e0d1708
DTITLE=Various Artist - Highlights from the Psychodelic sound CD 1
DYEAR=0
DGENRE=Pop
TTITLE0=Various Artist - 01 - Quicksilver Messenger Service - Chevy Camaro Commercial (Studio 1966)
TTITLE1=Various Artist - 02 - Quicksilver Messenger Service - The Fool (Studio 1967)
TTITLE2=Various Artist - 03 - Quicksilver Messenger Service - Happy Trails (Studio 1968)
TTITLE3=Various Artist - 04 - Quicksilver Messenger Service - Hoochie Coochie Man (Avalon 1966)
TTITLE4=Various Artist - 05 - Aum - I Need You (Avalon Ballroom 1969)
TTITLE5=Various Artist - 06 - Aum - Little Brown Hen (Avalon Ballroom 1969)
TTITLE6=Various Artist - 07 - Aum - A Little Help From You (Avalon Ballroom 1969)
TTITLE7=Various Artist - 08 - Aum - Bye-Bye Baby (Avalon Ballroom 1969)
EXTD=
EXTT0=
EXTT1=
EXTT2=
EXTT3=
EXTT4=
EXTT5=
EXTT6=
EXTT7=
PLAYORDER=
